# xmcd CD database file
#
# Track frame offsets:
#	150
#	19712
#	38967
#	60620
#	80785
#	117705
#	145447
#	164675
#	207800
#	227290
#	246540
#	268182
#	288475
#	311602
#
# Disc length: 4557 seconds
#
# Revision: 2
# Processed by: cddbd v1.5PL3 Copyright (c) Steve Scherf et al.
# Submitted via: CDex 1.51
#
DISCID=d711cb0e
DTITLE=浜崎あゆみ - A (BLUE)
DYEAR=1999
DGENRE=JPop
TTITLE0=too late  Original Version
TTITLE1=Trauma  Original Version
TTITLE2=End roll  Original Version
TTITLE3=monochrome  Original Version
TTITLE4=too late ''Razor 'N Guido Remix''
TTITLE5=Trauma ''Heavy Shuffle Mix''
TTITLE6=End roll ''HΛL's MIX''
TTITLE7=monochrome ''Keith Litman's Big City Vocal Mix''
TTITLE8=too late -instrumental-
TTITLE9=Trauma -instrumental-
TTITLE10=End roll -instrumental-
TTITLE11=monochrome -instrumental-
TTITLE12=End roll ''NEURO-matic Mix''
TTITLE13=monochrome ''Dub's full color Remix''
EXTD=YEAR: 1999
EXTT0=
EXTT1=
EXTT2=
EXTT3=
EXTT4=
EXTT5=
EXTT6=
EXTT7=
EXTT8=
EXTT9=
EXTT10=
EXTT11=
EXTT12=
EXTT13=
PLAYORDER=
